<svg id="Layer_1" data-name="Layer 1" xmlns="http://www.w3.org/2000/svg" xmlns:xlink="http://www.w3.org/1999/xlink" viewBox="0 0 56 56"><defs><radialGradient id="radial-gradient" cx="-102" cy="-28.13" r="29.48" gradientTransform="matrix(0.54, 0.54, -0.54, 0.54, 60.89, 81.28)" gradientUnits="userSpaceOnUse"><stop offset="0" stop-color="#d2e5f0"/><stop offset="1" stop-color="#5ea3c9"/></radialGradient><radialGradient id="radial-gradient-2" cx="-102" cy="-28.13" r="29.48" gradientTransform="matrix(0.54, 0.54, -0.54, 0.54, 57.61, 89.2)" xlink:href="#radial-gradient"/><radialGradient id="radial-gradient-3" cx="-102" cy="-28.13" r="29.48" gradientTransform="matrix(0.54, 0.54, -0.54, 0.54, 68.81, 84.56)" xlink:href="#radial-gradient"/><radialGradient id="radial-gradient-4" cx="-102" cy="-28.13" r="29.48" gradientTransform="matrix(0.54, 0.54, -0.54, 0.54, 54.33, 97.12)" xlink:href="#radial-gradient"/><radialGradient id="radial-gradient-5" cx="-102" cy="-28.13" r="29.48" gradientTransform="matrix(0.54, 0.54, -0.54, 0.54, 65.53, 92.48)" xlink:href="#radial-gradient"/><radialGradient id="radial-gradient-6" cx="-102" cy="-28.13" r="29.48" gradientTransform="matrix(0.54, 0.54, -0.54, 0.54, 76.73, 87.84)" xlink:href="#radial-gradient"/><radialGradient id="radial-gradient-7" cx="-102" cy="-28.13" r="29.48" gradientTransform="translate(51.04 105.04) rotate(45) scale(0.76 0.76)" xlink:href="#radial-gradient"/><radialGradient id="radial-gradient-8" cx="-102" cy="-28.13" r="29.48" gradientTransform="matrix(0.54, 0.54, -0.54, 0.54, 62.25, 100.4)" xlink:href="#radial-gradient"/><radialGradient id="radial-gradient-9" cx="-102" cy="-28.13" r="29.48" gradientTransform="matrix(0.54, 0.54, -0.54, 0.54, 73.45, 95.76)" xlink:href="#radial-gradient"/><radialGradient id="radial-gradient-10" cx="-102" cy="-28.13" r="29.48" gradientTransform="matrix(0.54, 0.54, -0.54, 0.54, 84.65, 91.12)" xlink:href="#radial-gradient"/><radialGradient id="radial-gradient-11" cx="-102" cy="-28.13" r="29.48" gradientTransform="translate(58.96 108.32) rotate(45) scale(0.76 0.76)" xlink:href="#radial-gradient"/><radialGradient id="radial-gradient-12" cx="-102" cy="-28.13" r="29.48" gradientTransform="matrix(0.54, 0.54, -0.54, 0.54, 70.17, 103.68)" xlink:href="#radial-gradient"/><radialGradient id="radial-gradient-13" cx="-102" cy="-28.13" r="29.48" gradientTransform="translate(81.38 99.04) rotate(44.99) scale(0.76 0.76)" xlink:href="#radial-gradient"/><radialGradient id="radial-gradient-14" cx="-102" cy="-28.13" r="29.48" gradientTransform="matrix(0.54, 0.54, -0.54, 0.54, 66.88, 111.61)" xlink:href="#radial-gradient"/><radialGradient id="radial-gradient-15" cx="-102" cy="-28.13" r="29.48" gradientTransform="matrix(0.54, 0.54, -0.54, 0.54, 78.09, 106.96)" xlink:href="#radial-gradient"/><radialGradient id="radial-gradient-16" cx="-102" cy="-28.13" r="29.48" gradientTransform="translate(74.81 114.88) rotate(45) scale(0.76 0.76)" xlink:href="#radial-gradient"/><radialGradient id="radial-gradient-17" cx="-102" cy="-28.13" r="36.85" gradientTransform="translate(58.57 75.68) rotate(45) scale(0.76 0.76)" gradientUnits="userSpaceOnUse"><stop offset="0" stop-color="#f7d7e0"/><stop offset="1" stop-color="#e36a8d"/></radialGradient><radialGradient id="radial-gradient-18" cx="-102" cy="-28.13" r="36.85" gradientTransform="matrix(0.54, 0.54, -0.54, 0.54, 55.29, 83.6)" xlink:href="#radial-gradient-17"/><radialGradient id="radial-gradient-19" cx="-102" cy="-28.13" r="36.85" gradientTransform="matrix(0.54, 0.54, -0.54, 0.54, 66.49, 78.96)" xlink:href="#radial-gradient-17"/><radialGradient id="radial-gradient-20" cx="-102" cy="-28.13" r="36.85" gradientTransform="matrix(0.54, 0.54, -0.54, 0.54, 52.01, 91.52)" xlink:href="#radial-gradient-17"/><radialGradient id="radial-gradient-21" cx="-102" cy="-28.13" r="36.85" gradientTransform="matrix(0.54, 0.54, -0.54, 0.54, 63.21, 86.88)" xlink:href="#radial-gradient-17"/><radialGradient id="radial-gradient-22" cx="-102" cy="-28.13" r="36.85" gradientTransform="matrix(0.54, 0.54, -0.54, 0.54, 74.41, 82.24)" xlink:href="#radial-gradient-17"/><radialGradient id="radial-gradient-23" cx="-102" cy="-28.13" r="36.85" gradientTransform="matrix(0.54, 0.54, -0.54, 0.54, 48.73, 99.44)" xlink:href="#radial-gradient-17"/><radialGradient id="radial-gradient-24" cx="-102" cy="-28.13" r="36.85" gradientTransform="matrix(0.54, 0.54, -0.54, 0.54, 59.93, 94.8)" xlink:href="#radial-gradient-17"/><radialGradient id="radial-gradient-25" cx="-102" cy="-28.13" r="36.85" gradientTransform="matrix(0.54, 0.54, -0.54, 0.54, 71.13, 90.16)" xlink:href="#radial-gradient-17"/><radialGradient id="radial-gradient-26" cx="-102" cy="-28.13" r="36.85" gradientTransform="matrix(0.54, 0.54, -0.54, 0.54, 82.33, 85.53)" xlink:href="#radial-gradient-17"/><radialGradient id="radial-gradient-27" cx="-102" cy="-28.13" r="36.85" gradientTransform="translate(45.45 107.36) rotate(45) scale(0.76 0.76)" xlink:href="#radial-gradient-17"/><radialGradient id="radial-gradient-28" cx="-102" cy="-28.13" r="36.85" gradientTransform="matrix(0.54, 0.54, -0.54, 0.54, 56.65, 102.72)" xlink:href="#radial-gradient-17"/><radialGradient id="radial-gradient-29" cx="-102" cy="-28.13" r="36.85" gradientTransform="matrix(0.54, 0.54, -0.54, 0.54, 67.85, 98.08)" xlink:href="#radial-gradient-17"/><radialGradient id="radial-gradient-30" cx="-102" cy="-28.13" r="36.85" gradientTransform="matrix(0.54, 0.54, -0.54, 0.54, 79.05, 93.45)" xlink:href="#radial-gradient-17"/><radialGradient id="radial-gradient-31" cx="-102" cy="-28.13" r="36.85" gradientTransform="matrix(0.54, 0.54, -0.54, 0.54, 53.37, 110.64)" xlink:href="#radial-gradient-17"/><radialGradient id="radial-gradient-32" cx="-102" cy="-28.13" r="36.85" gradientTransform="matrix(0.54, 0.54, -0.54, 0.54, 64.57, 106)" xlink:href="#radial-gradient-17"/><radialGradient id="radial-gradient-33" cx="-102" cy="-28.13" r="36.85" gradientTransform="matrix(0.54, 0.54, -0.54, 0.54, 75.76, 101.37)" xlink:href="#radial-gradient-17"/><radialGradient id="radial-gradient-34" cx="-102" cy="-28.13" r="36.85" gradientTransform="matrix(0.54, 0.54, -0.54, 0.54, 86.97, 96.72)" xlink:href="#radial-gradient-17"/><radialGradient id="radial-gradient-35" cx="-102" cy="-28.13" r="36.85" gradientTransform="matrix(0.54, 0.54, -0.54, 0.54, 61.29, 113.92)" xlink:href="#radial-gradient-17"/><radialGradient id="radial-gradient-36" cx="-102" cy="-28.13" r="36.85" gradientTransform="matrix(0.54, 0.54, -0.54, 0.54, 72.48, 109.29)" xlink:href="#radial-gradient-17"/><radialGradient id="radial-gradient-37" cx="-102" cy="-28.13" r="36.85" gradientTransform="matrix(0.54, 0.54, -0.54, 0.54, 83.69, 104.64)" xlink:href="#radial-gradient-17"/><radialGradient id="radial-gradient-38" cx="-102" cy="-28.13" r="36.85" gradientTransform="matrix(0.54, 0.54, -0.54, 0.54, 69.2, 117.21)" xlink:href="#radial-gradient-17"/><radialGradient id="radial-gradient-39" cx="-102" cy="-28.13" r="36.85" gradientTransform="matrix(0.54, 0.54, -0.54, 0.54, 80.41, 112.56)" xlink:href="#radial-gradient-17"/><radialGradient id="radial-gradient-40" cx="-102" cy="-28.13" r="36.85" gradientTransform="matrix(0.54, 0.54, -0.54, 0.54, 90.25, 88.8)" xlink:href="#radial-gradient-17"/><radialGradient id="radial-gradient-41" cx="-102" cy="-28.13" r="36.85" gradientTransform="matrix(0.54, 0.54, -0.54, 0.54, 77.13, 120.48)" xlink:href="#radial-gradient-17"/></defs><title>logo</title><rect x="40.99" y="7.39" width="7.92" height="7.92" transform="translate(4.98 34.96) rotate(-45)" style="fill:#5ea3c9"/><rect x="29.79" y="7.39" width="7.92" height="7.92" transform="translate(1.7 27.04) rotate(-45)" style="fill:#5ea3c9"/><rect x="40.99" y="18.59" width="7.92" height="7.92" transform="translate(-2.94 38.24) rotate(-45)" style="fill:#5ea3c9"/><rect x="18.59" y="7.39" width="7.92" height="7.92" transform="translate(-1.58 19.12) rotate(-45)" style="fill:#5ea3c9"/><rect x="29.79" y="18.59" width="7.92" height="7.92" transform="translate(-6.22 30.32) rotate(-45)" style="fill:#5ea3c9"/><rect x="40.99" y="29.79" width="7.92" height="7.92" transform="translate(-10.85 41.52) rotate(-45)" style="fill:#5ea3c9"/><rect x="7.39" y="7.39" width="7.92" height="7.92" transform="translate(-4.86 11.2) rotate(-45)" style="fill:#5ea3c9"/><rect x="18.59" y="18.59" width="7.92" height="7.92" transform="translate(-9.5 22.4) rotate(-45)" style="fill:#5ea3c9"/><rect x="29.79" y="29.79" width="7.92" height="7.92" transform="translate(-14.13 33.6) rotate(-45)" style="fill:#5ea3c9"/><rect x="40.99" y="40.99" width="7.92" height="7.92" transform="translate(-18.77 44.79) rotate(-45)" style="fill:#5ea3c9"/><rect x="7.39" y="18.59" width="7.92" height="7.92" transform="translate(-12.78 14.48) rotate(-45)" style="fill:#5ea3c9"/><rect x="18.59" y="29.79" width="7.92" height="7.92" transform="translate(-17.42 25.68) rotate(-45)" style="fill:#5ea3c9"/><rect x="29.79" y="40.99" width="7.92" height="7.92" transform="translate(-22.05 36.87) rotate(-44.99)" style="fill:#5ea3c9"/><rect x="7.39" y="29.79" width="7.92" height="7.92" transform="translate(-20.7 17.76) rotate(-45)" style="fill:#5ea3c9"/><rect x="18.59" y="40.99" width="7.92" height="7.92" transform="translate(-25.33 28.96) rotate(-45)" style="fill:#5ea3c9"/><rect x="7.39" y="40.99" width="7.92" height="7.92" transform="translate(-28.61 21.04) rotate(-45)" style="fill:#5ea3c9"/><rect x="40.99" y="7.39" width="7.92" height="7.92" transform="translate(4.98 34.96) rotate(-45)" style="fill:url(#radial-gradient)"/><rect x="29.79" y="7.39" width="7.92" height="7.92" transform="translate(1.7 27.04) rotate(-45)" style="fill:url(#radial-gradient-2)"/><rect x="40.99" y="18.59" width="7.92" height="7.92" transform="translate(-2.94 38.24) rotate(-45)" style="fill:url(#radial-gradient-3)"/><rect x="18.59" y="7.39" width="7.92" height="7.92" transform="translate(-1.58 19.12) rotate(-45)" style="fill:url(#radial-gradient-4)"/><rect x="29.79" y="18.59" width="7.92" height="7.92" transform="translate(-6.22 30.32) rotate(-45)" style="fill:url(#radial-gradient-5)"/><rect x="40.99" y="29.79" width="7.92" height="7.92" transform="translate(-10.85 41.52) rotate(-45)" style="fill:url(#radial-gradient-6)"/><rect x="7.39" y="7.39" width="7.92" height="7.92" transform="translate(-4.86 11.2) rotate(-45)" style="fill:url(#radial-gradient-7)"/><rect x="18.59" y="18.59" width="7.92" height="7.92" transform="translate(-9.5 22.4) rotate(-45)" style="fill:url(#radial-gradient-8)"/><rect x="29.79" y="29.79" width="7.92" height="7.92" transform="translate(-14.13 33.6) rotate(-45)" style="fill:url(#radial-gradient-9)"/><rect x="40.99" y="40.99" width="7.92" height="7.92" transform="translate(-18.77 44.79) rotate(-45)" style="fill:url(#radial-gradient-10)"/><rect x="7.39" y="18.59" width="7.92" height="7.92" transform="translate(-12.78 14.48) rotate(-45)" style="fill:url(#radial-gradient-11)"/><rect x="18.59" y="29.79" width="7.92" height="7.92" transform="translate(-17.42 25.68) rotate(-45)" style="fill:url(#radial-gradient-12)"/><rect x="29.79" y="40.99" width="7.92" height="7.92" transform="translate(-22.05 36.87) rotate(-44.99)" style="fill:url(#radial-gradient-13)"/><rect x="7.39" y="29.79" width="7.92" height="7.92" transform="translate(-20.7 17.76) rotate(-45)" style="fill:url(#radial-gradient-14)"/><rect x="18.59" y="40.99" width="7.92" height="7.92" transform="translate(-25.33 28.96) rotate(-45)" style="fill:url(#radial-gradient-15)"/><rect x="7.39" y="40.99" width="7.92" height="7.92" transform="translate(-28.61 21.04) rotate(-45)" style="fill:url(#radial-gradient-16)"/><rect x="46.59" y="1.79" width="7.92" height="7.92" transform="translate(10.58 37.28) rotate(-45)" style="fill:#e36a8d"/><rect x="35.39" y="1.79" width="7.92" height="7.92" transform="translate(7.3 29.36) rotate(-45)" style="fill:#e36a8d"/><rect x="46.59" y="12.99" width="7.92" height="7.92" transform="translate(2.66 40.56) rotate(-45)" style="fill:#e36a8d"/><rect x="24.19" y="1.79" width="7.92" height="7.92" transform="translate(4.02 21.44) rotate(-45)" style="fill:#e36a8d"/><rect x="35.39" y="12.99" width="7.92" height="7.92" transform="translate(-0.62 32.64) rotate(-45)" style="fill:#e36a8d"/><rect x="46.59" y="24.19" width="7.92" height="7.92" transform="translate(-5.25 43.84) rotate(-45)" style="fill:#e36a8d"/><rect x="12.99" y="1.79" width="7.92" height="7.92" transform="translate(0.74 13.52) rotate(-45)" style="fill:#e36a8d"/><rect x="24.19" y="12.99" width="7.92" height="7.92" transform="translate(-3.9 24.72) rotate(-45)" style="fill:#e36a8d"/><rect x="35.39" y="24.19" width="7.92" height="7.92" transform="translate(-8.54 35.92) rotate(-45)" style="fill:#e36a8d"/><rect x="46.59" y="35.39" width="7.92" height="7.92" transform="translate(-13.17 47.12) rotate(-45)" style="fill:#e36a8d"/><rect x="1.79" y="1.79" width="7.92" height="7.92" transform="translate(-2.54 5.6) rotate(-45)" style="fill:#e36a8d"/><rect x="12.99" y="12.99" width="7.92" height="7.92" transform="translate(-7.18 16.8) rotate(-45)" style="fill:#e36a8d"/><rect x="24.19" y="24.19" width="7.92" height="7.92" transform="translate(-11.82 28) rotate(-45)" style="fill:#e36a8d"/><rect x="35.39" y="35.39" width="7.92" height="7.92" transform="translate(-16.45 39.2) rotate(-45)" style="fill:#e36a8d"/><rect x="1.79" y="12.99" width="7.92" height="7.92" transform="translate(-10.46 8.88) rotate(-45)" style="fill:#e36a8d"/><rect x="12.99" y="24.19" width="7.92" height="7.92" transform="translate(-15.1 20.08) rotate(-45)" style="fill:#e36a8d"/><rect x="24.19" y="35.39" width="7.92" height="7.92" transform="translate(-19.74 31.28) rotate(-45)" style="fill:#e36a8d"/><rect x="35.39" y="46.59" width="7.92" height="7.92" transform="translate(-24.37 42.48) rotate(-45)" style="fill:#e36a8d"/><rect x="1.79" y="24.19" width="7.92" height="7.92" transform="translate(-18.38 12.16) rotate(-45)" style="fill:#e36a8d"/><rect x="12.99" y="35.39" width="7.92" height="7.92" transform="translate(-23.02 23.36) rotate(-45)" style="fill:#e36a8d"/><rect x="24.19" y="46.59" width="7.92" height="7.92" transform="translate(-27.65 34.56) rotate(-45)" style="fill:#e36a8d"/><rect x="1.79" y="35.39" width="7.92" height="7.92" transform="translate(-26.3 15.44) rotate(-45)" style="fill:#e36a8d"/><rect x="12.99" y="46.59" width="7.92" height="7.92" transform="translate(-30.93 26.64) rotate(-45)" style="fill:#e36a8d"/><rect x="46.59" y="46.59" width="7.92" height="7.92" transform="translate(-21.09 50.4) rotate(-45)" style="fill:#e36a8d"/><rect x="1.79" y="46.59" width="7.92" height="7.92" transform="translate(-34.22 18.72) rotate(-45)" style="fill:#e36a8d"/><rect x="46.59" y="1.79" width="7.92" height="7.92" transform="translate(10.58 37.28) rotate(-45)" style="fill:url(#radial-gradient-17)"/><rect x="35.39" y="1.79" width="7.92" height="7.92" transform="translate(7.3 29.36) rotate(-45)" style="fill:url(#radial-gradient-18)"/><rect x="46.59" y="12.99" width="7.92" height="7.92" transform="translate(2.66 40.56) rotate(-45)" style="fill:url(#radial-gradient-19)"/><rect x="24.19" y="1.79" width="7.92" height="7.92" transform="translate(4.02 21.44) rotate(-45)" style="fill:url(#radial-gradient-20)"/><rect x="35.39" y="12.99" width="7.92" height="7.92" transform="translate(-0.62 32.64) rotate(-45)" style="fill:url(#radial-gradient-21)"/><rect x="46.59" y="24.19" width="7.92" height="7.92" transform="translate(-5.25 43.84) rotate(-45)" style="fill:url(#radial-gradient-22)"/><rect x="12.99" y="1.79" width="7.92" height="7.92" transform="translate(0.74 13.52) rotate(-45)" style="fill:url(#radial-gradient-23)"/><rect x="24.19" y="12.99" width="7.92" height="7.92" transform="translate(-3.9 24.72) rotate(-45)" style="fill:url(#radial-gradient-24)"/><rect x="35.39" y="24.19" width="7.92" height="7.92" transform="translate(-8.54 35.92) rotate(-45)" style="fill:url(#radial-gradient-25)"/><rect x="46.59" y="35.39" width="7.92" height="7.92" transform="translate(-13.17 47.12) rotate(-45)" style="fill:url(#radial-gradient-26)"/><rect x="1.79" y="1.79" width="7.92" height="7.92" transform="translate(-2.54 5.6) rotate(-45)" style="fill:url(#radial-gradient-27)"/><rect x="12.99" y="12.99" width="7.92" height="7.92" transform="translate(-7.18 16.8) rotate(-45)" style="fill:url(#radial-gradient-28)"/><rect x="24.19" y="24.19" width="7.92" height="7.92" transform="translate(-11.82 28) rotate(-45)" style="fill:url(#radial-gradient-29)"/><rect x="35.39" y="35.39" width="7.92" height="7.92" transform="translate(-16.45 39.2) rotate(-45)" style="fill:url(#radial-gradient-30)"/><rect x="1.79" y="12.99" width="7.92" height="7.92" transform="translate(-10.46 8.88) rotate(-45)" style="fill:url(#radial-gradient-31)"/><rect x="12.99" y="24.19" width="7.92" height="7.92" transform="translate(-15.1 20.08) rotate(-45)" style="fill:url(#radial-gradient-32)"/><rect x="24.19" y="35.39" width="7.92" height="7.92" transform="translate(-19.74 31.28) rotate(-45)" style="fill:url(#radial-gradient-33)"/><rect x="35.39" y="46.59" width="7.92" height="7.92" transform="translate(-24.37 42.48) rotate(-45)" style="fill:url(#radial-gradient-34)"/><rect x="1.79" y="24.19" width="7.92" height="7.92" transform="translate(-18.38 12.16) rotate(-45)" style="fill:url(#radial-gradient-35)"/><rect x="12.99" y="35.39" width="7.92" height="7.92" transform="translate(-23.02 23.36) rotate(-45)" style="fill:url(#radial-gradient-36)"/><rect x="24.19" y="46.59" width="7.92" height="7.92" transform="translate(-27.65 34.56) rotate(-45)" style="fill:url(#radial-gradient-37)"/><rect x="1.79" y="35.39" width="7.92" height="7.92" transform="translate(-26.3 15.44) rotate(-45)" style="fill:url(#radial-gradient-38)"/><rect x="12.99" y="46.59" width="7.92" height="7.92" transform="translate(-30.93 26.64) rotate(-45)" style="fill:url(#radial-gradient-39)"/><rect x="46.59" y="46.59" width="7.92" height="7.92" transform="translate(-21.09 50.4) rotate(-45)" style="fill:url(#radial-gradient-40)"/><rect x="1.79" y="46.59" width="7.92" height="7.92" transform="translate(-34.22 18.72) rotate(-45)" style="fill:url(#radial-gradient-41)"/></svg>